<?xml version="1.0" standalone="no"?>
<!DOCTYPE svg PUBLIC "-//W3C//DTD SVG 20010904//EN"
 "http://www.w3.org/TR/2001/REC-SVG-20010904/DTD/svg10.dtd">
<svg version="1.0" xmlns="http://www.w3.org/2000/svg"
 width="212.000000pt" height="212.000000pt" viewBox="0 0 212.000000 212.000000"
 preserveAspectRatio="xMidYMid meet">
<metadata>
Created by potrace 1.14, written by Peter Selinger 2001-2017
</metadata>
<g transform="translate(0.000000,212.000000) scale(0.100000,-0.100000)"
fill="#000000" stroke="none">
<path d="M868 1999 c-349 -73 -622 -323 -727 -664 -29 -94 -36 -151 -35 -295
0 -159 23 -258 93 -400 55 -113 88 -159 186 -260 120 -123 299 -220 484 -260
64 -14 115 -18 211 -16 135 4 150 6 254 37 350 104 618 410 674 769 4 25 7 95
7 155 -1 132 -9 191 -41 289 -25 77 -73 174 -117 241 -48 72 -164 194 -221
232 -23 15 -43 31 -46 34 -13 15 -125 72 -186 95 -166 62 -368 79 -536 43z"/>
</g>
</svg>
